<svg xmlns="http://www.w3.org/2000/svg" viewBox="0 0 234.73 106.56"><defs><style>.cls-1{fill:#143d21;}</style></defs><title>THGL</title><g id="Layer_2" data-name="Layer 2"><g id="Layer_1-2" data-name="Layer 1"><path class="cls-1" d="M14.56,105.24c-.5.09-1-.35-1.28-.74C10,100.13,8.93,94.42,9.18,89A1.71,1.71,0,0,0,8,87.21a1.2,1.2,0,0,0-1,.31,2.19,2.19,0,0,0-.77,1.58,30.85,30.85,0,0,1-4.34,13.11c-.25.42-.62.9-1.11.83a.89.89,0,0,1-.62-.94A2.89,2.89,0,0,1,.65,101,30.37,30.37,0,0,0,4.33,90.69a11,11,0,0,1,.85-3.32,2.89,2.89,0,0,1,5.48.79c.48,2.32.16,4.72.6,7.06A17.68,17.68,0,0,0,15.31,104a.32.32,0,0,1,.1.19.43.43,0,0,1,0,.19,1.88,1.88,0,0,1-.48.67A.81.81,0,0,1,14.56,105.24Z"/><path class="cls-1" d="M22.89,105.08a1,1,0,0,1-.78-.28,22.27,22.27,0,0,1-5.44-8.68,32.07,32.07,0,0,1-1.6-7.25c-.26-2.41-.32-4.83-.78-7.22-.2-1-.24-2-1.14-2.68-1.82-1.45-4.15-.1-5.63,1.17a21.53,21.53,0,0,0-3.8,4.12,17.82,17.82,0,0,0-1.45,2.55C2,87.47,1.84,88.62,1.19,89c-.32.2-1,.19-1.1-.24a1.22,1.22,0,0,1,.09-.72,20.9,20.9,0,0,1,6-9A10,10,0,0,1,9.77,77a4.77,4.77,0,0,1,4,.51c1.48,1,2,3,2.31,4.72.62,3.61.76,7.29,1.51,10.87s2.2,7.17,4.95,9.6a3.63,3.63,0,0,1,1,1.07A.89.89,0,0,1,22.89,105.08Z"/><path class="cls-1" d="M32.85,105.27c-.47,0-.84-.66-1.11-1a29.09,29.09,0,0,1-2.21-2.74c-1-1.32-2-2.65-2.82-4A31.26,31.26,0,0,1,22,83.4a16,16,0,0,0-2.7-8.82,8,8,0,0,0-7.44-2.83A14.45,14.45,0,0,0,4,76c-.9.86-1.85,1.85-3.09,1.95-.38,0-.87-.15-.84-.53A.75.75,0,0,1,.36,77a27.71,27.71,0,0,1,7-5.22A13.33,13.33,0,0,1,13,70a9.69,9.69,0,0,1,8.79,5.5c1.18,2.41,1.4,5.12,1.74,7.74a34.84,34.84,0,0,0,1.91,7.86,32.23,32.23,0,0,0,4,7.35c1.24,1.73,2.64,3.34,4,5a1.41,1.41,0,0,1,.32.52,1.17,1.17,0,0,1-.44,1.08A.72.72,0,0,1,32.85,105.27Z"/><path class="cls-1" d="M42.83,104.81a13.65,13.65,0,0,1-3.56-2.47,38.88,38.88,0,0,1-7.89-17.1c-1.24-5.79-2.8-12.08-6.73-16.7-5.08-6-14-6.77-20.48-2.63-1.2.77-2.81,1.68-3.87.73a18.29,18.29,0,0,1,15-4.9c8,1.1,13.93,7.72,16.28,15.16,1.57,5,1.71,10.33,3.61,15.23a27.11,27.11,0,0,0,3.63,6.53c1.06,1.4,4.65,3.7,5,5.33C43.92,104.9,43.49,105,42.83,104.81Z"/><path class="cls-1" d="M49.37,104.76a1,1,0,0,1-.3-.22,2.78,2.78,0,0,1-.55-1.1,19.05,19.05,0,0,0-5.31-8c-1.09-1-2.37-2-2.61-3.38s.65-2.79,1.6-3.88c2-2.27,4.93-4.21,7.87-3.51a16.27,16.27,0,0,1,3.51,1.65c5.67,2.89,12.69,1.47,17.4-2.6a18.36,18.36,0,0,0,5.94-16.48,17.81,17.81,0,0,0-4.25-8.9c-2.46-2.78-5.88-4.49-8.53-7.09a20.61,20.61,0,0,1-5.89-17.18,11.38,11.38,0,0,1,2.09-5.55A10.3,10.3,0,0,1,67.52,25c5.82-.54,11.74,2.61,16,6.38.32.29.66.66.59,1.08a.92.92,0,0,1-1.12.6,2.77,2.77,0,0,1-1.17-.75c-3.38-3-7.55-5.46-12.09-5.74a10.67,10.67,0,0,0-5.88,1.19,8.12,8.12,0,0,0-3.88,6,17.84,17.84,0,0,0,2.64,12.88c2.23,3.38,5.52,5.85,8.68,8.32a18.75,18.75,0,0,1,3.92,3.78,19,19,0,0,1,2.73,5.36,20.33,20.33,0,0,1-6,20.93A18,18,0,0,1,53,87.88c-1.51-.72-3-1.7-4.7-1.62-2.1.1-3.72,1.81-5.09,3.41a3.21,3.21,0,0,0-.91,1.63c-.1,1,.8,1.87,1.59,2.57a24.52,24.52,0,0,1,6.46,9.3c.21.54.34,1.28-.14,1.6A.81.81,0,0,1,49.37,104.76Z"/><path class="cls-1" d="M54.57,104.54a2.12,2.12,0,0,1-.56-1,13.49,13.49,0,0,1-.19-1.68A29.29,29.29,0,0,0,52.68,98a3.87,3.87,0,0,1,.64-3.75,3.69,3.69,0,0,1,3.08-.78c3.4.45,6.27,2.79,9.68,3.42,8.44,1.58,13.46-6.61,16.19-13.31A2.79,2.79,0,0,1,83,82.43a.91.91,0,0,1,1.26,0c.29.39.08.94-.15,1.37a48.42,48.42,0,0,1-2.73,4.94A34.09,34.09,0,0,1,78.83,93a14.62,14.62,0,0,1-8.08,5.47c-4.66,1-8.93-.9-13-2.94-.93-.48-2.58-.91-3.38,0-.64.74-.27,1.86.1,2.76a14.82,14.82,0,0,1,1.41,5.7.89.89,0,0,1-.29.76.65.65,0,0,1-.58,0A1.29,1.29,0,0,1,54.57,104.54Z"/><path class="cls-1" d="M83,60.62s-.06-.06-.09-.1a35.71,35.71,0,0,0-1.85-3.16,31.21,31.21,0,0,0-2.32-2.94,36.41,36.41,0,0,0-6.15-5.13c-2.24-1.61-4.73-3.31-5.64-6a14.51,14.51,0,0,1-.6-5c.07-1.83.43-3.8,1.78-5A5.3,5.3,0,0,1,72,31.94a6.13,6.13,0,0,1,4.37,2c1.36,1.58,1.64,3.79,2.48,5.7a10.29,10.29,0,0,0,3.66,4.41,3.16,3.16,0,0,1,1.19,1.1c.24.5,0,1.24-.51,1.32a1.34,1.34,0,0,1-1-.44c-2-1.73-4.11-3.56-5.1-6-.68-1.67-.84-3.6-2-5a4.28,4.28,0,0,0-3.44-1.52,3.46,3.46,0,0,0-3.3,2.22,11.44,11.44,0,0,0-.35,4.87,8.54,8.54,0,0,0,1.85,4.65,31.16,31.16,0,0,0,2.73,1.95,32.33,32.33,0,0,1,7.57,6.35,27.64,27.64,0,0,1,3.67,5.25,1.84,1.84,0,0,1,.24.87c0,.51-.48.72-.88.9A.22.22,0,0,1,83,60.62Z"/><path class="cls-1" d="M28.93,66a3.52,3.52,0,0,1-2.12-1.19c-1-1.18-1.08-2.82-1.2-4.34s-.37-3.18-1.51-4.2a6,6,0,0,0-3.93-1.09,73.9,73.9,0,0,0-18.39,2.4,1.17,1.17,0,0,1-.94,0,.84.84,0,0,1,0-1.18,2.71,2.71,0,0,1,1.67-.77,124.7,124.7,0,0,1,14.63-2.07,16.19,16.19,0,0,1,5.47.3,6.25,6.25,0,0,1,4.14,3.32c.85,2,.24,4.4,1.1,6.4a1.62,1.62,0,0,0,.79.91,1.43,1.43,0,0,0,.87,0,3.23,3.23,0,0,0,2.29-1.88c.69-1.63-.32-4-1.09-5.48-2.61-4.94-3.35-7.8-4.82-13.48l-.36-1.4a31.31,31.31,0,0,0-2.78-7.51,8,8,0,0,0-4.11-3.42,7.52,7.52,0,0,0-4.73-.42c-2.39,1.1-4.07,4.6-4.75,7a19.54,19.54,0,0,1-1.35,4.36,7.64,7.64,0,0,1-6.09,3.53,1.2,1.2,0,0,1-1.08-.27c-.34-.4,0-1.06.44-1.31a4.47,4.47,0,0,1,1.55-.27A4.79,4.79,0,0,0,5.93,42a12.23,12.23,0,0,0,1.52-4.08,16.58,16.58,0,0,1,2.89-6,6.94,6.94,0,0,1,7.13-2.65c4.54,1,7.07,4.7,8.48,8.85,1,2.85,1.51,5.79,2.36,8.67a64.4,64.4,0,0,0,3.32,8.7,15.88,15.88,0,0,1,1.79,5.42A4.9,4.9,0,0,1,31,65.77,3.44,3.44,0,0,1,28.93,66Z"/><path class="cls-1" d="M11.26,50.68a1.27,1.27,0,0,1-.34,0,1.67,1.67,0,0,1-1.18-1.23,3.58,3.58,0,0,1,0-1.42,14.65,14.65,0,0,1,3.12-7c1.57-1.75,4.55-3,6.49-1.06a6.19,6.19,0,0,1,1.36,2.24c.78,2,1.91,6.47-.35,7.91a2.66,2.66,0,0,1-2.41.07,6.62,6.62,0,0,1-2-1.49,1.74,1.74,0,0,0-.94-.58,1.35,1.35,0,0,0-1,.44c-.49.45-.86,1-1.34,1.47A2.3,2.3,0,0,1,11.26,50.68Zm5.8-10.08a3.7,3.7,0,0,0-.46,0,3.32,3.32,0,0,0-2.49,1.18,20.83,20.83,0,0,0-1.3,2.36l-.13.27a24.37,24.37,0,0,0-1.25,3.89,4.55,4.55,0,0,0-.13.67.5.5,0,0,0,.36-.16c1.47-1.72,2.92-3.19,4.57-2.2a3.58,3.58,0,0,1,.93,1,2.63,2.63,0,0,0,1.16,1.06,2,2,0,0,0,1.34-.07c.29-.1.42-.66.32-1.35-.07-.48-.14-.93-.2-1.35-.31-2.21-.49-3.54-1.08-4.56A1.72,1.72,0,0,0,17.06,40.6Z"/><path class="cls-1" d="M48.73,81.63a19,19,0,0,1-6.64-.95c-2.92-1-6.19-3.83-4.85-7.29.45-1.17,1.27-2,1.56-3.32a12.34,12.34,0,0,0,.07-4.2c-.5-3.66-1.93-7.08-3-10.59S34.64,48,34.05,44.23c-.86-5.4-2.13-10.91-5.27-15.39-5.05-7.22-14.4-9.5-21.23-3.32a23,23,0,0,0-5.33,7.63,2.6,2.6,0,0,1-1,1.3c-.48.26-1.25,0-1.26-.54a1.23,1.23,0,0,1,.13-.48A24.08,24.08,0,0,1,7.45,23.7,15.84,15.84,0,0,1,19,20.45c4.72.67,8.82,3.9,11.44,7.89s3.93,8.7,4.8,13.39c.94,5.11,1.36,10.34,2.85,15.33S42,67.32,40,72.07c-.7,1.66-1.9,3.58-.9,5.07a3.84,3.84,0,0,0,1.74,1.21,20.13,20.13,0,0,0,18-1.26c2.66-1.61,5.1-4.23,5-7.34a9.31,9.31,0,0,0-2.59-5.57c-2.81-3.3-6.54-5.67-9.27-9a23,23,0,0,1-5-11.11c-.87-5.89.66-11.84,2.27-17.57A34.37,34.37,0,0,1,52.6,18a12.06,12.06,0,0,1,6.8-5.65,13.65,13.65,0,0,1,7.56.44c6,1.79,11.48,5.47,16.38,9.29.43.33.85,1.05.38,1.32a.83.83,0,0,1-.62,0,12.7,12.7,0,0,1-3.63-2.09A52.8,52.8,0,0,0,69,15.44c-3.14-1.29-6.69-2.21-9.87-1.06-7.53,2.7-8.47,12.76-9.77,19.39-.9,4.57-1.53,9.44.12,13.93,2.14,5.82,7.51,9.74,11.7,14a14.85,14.85,0,0,1,4.07,6.45c1.15,4.46-1.92,8.11-5.55,10.27A23.19,23.19,0,0,1,48.73,81.63Z"/><path class="cls-1" d="M47.28,77.24a4.39,4.39,0,0,1-1-.19c-1.62-.54-3.31-2.89-2.42-4.59.59-1.13,2-1.9,3-2.7a2.69,2.69,0,0,0,.77-.88,1.84,1.84,0,0,0-.05-1.47c-.58-1.33-1.94-2.15-2.86-3.22a15.34,15.34,0,0,1-3.08-6.12c-.38-1.52-.66-3.87.71-5,2.14-1.71,5.34.08,6.6,2,1,1.58,1.5,3.41,2.38,5.06a15.86,15.86,0,0,0,3.75,4.67,26.33,26.33,0,0,1,2,1.74c2,2.12,1.13,5.06-.88,6.87S50.25,77.5,47.28,77.24ZM43,55.56c-.1,2.39,2.49,7,3.29,7.86A16,16,0,0,1,49,66.64c1.19,2.33-.45,4-2.22,5.3-.48.36-1.36.81-1.43,1.47a1.67,1.67,0,0,0,.3,1c1.9,3,7.72-.77,9.53-2.25,4.29-3.52-1.91-6.33-3.79-8.92-1.63-2.24-2.27-5-3.77-7.28a4,4,0,0,0-2.72-1.86C43.52,53.93,43,54.55,43,55.56Z"/><path class="cls-1" d="M39.76,35.37a3.56,3.56,0,0,1-.92-.11,5,5,0,0,1-3-2.45,19,19,0,0,1-1.43-3.67,53.65,53.65,0,0,0-7.76-15A15.29,15.29,0,0,0,21.07,8.9a8.94,8.94,0,0,0-8.82.89c-2,1.46-3.29,3.69-4.87,5.6a20.81,20.81,0,0,1-5.06,4.39c-.54.34-1.36.59-1.7,0s.26-1.18.78-1.56A33.29,33.29,0,0,0,7.24,13C9,11,10.58,8.7,12.94,7.46c3.82-2,8.72-.63,12,2.17,3.57,3,5.73,7.49,7.89,11.56,1.58,3,3.08,5.85,3.59,8.57.44,2.4,2.52,5.29,5.15,3.28A6.45,6.45,0,0,0,43.22,31a16.66,16.66,0,0,0,2-7.24c.13-3.77-1-7.63,0-11.27a11.52,11.52,0,0,1,8-7.71c3.24-.91,6.69-.55,10-.83A26.54,26.54,0,0,0,73.5.89,2.64,2.64,0,0,1,74.79.46c.45,0,.93.4.87.85s-.41.6-.74.78A29.48,29.48,0,0,1,63.07,5.64c-2.49.19-5,0-7.48.35a11,11,0,0,0-6.72,3c-2.36,2.49-2.73,6.25-2.58,9.69.15,3.6.7,7.34-.61,10.8a11.26,11.26,0,0,1-3,4.78A4.91,4.91,0,0,1,39.76,35.37Z"/><path class="cls-1" d="M39.15,19.69a6,6,0,0,1-3.66-1.3C32.36,15.91,32.34,11,29.59,8.1a12.4,12.4,0,0,0-4.28-2.64,49.74,49.74,0,0,0-7.72-2.52c-1.26-.3-2.55-.47-3.82-.68q-.93-.17-1.86-.3c-.41-.07-.82-.11-1.23-.16-.25,0-.71.05-.72-.26A5.36,5.36,0,0,1,10,.48a.62.62,0,0,1,.16-.4c.29-.18.83,0,1.15,0Q12.15.2,13,.35c1.14.2,2.28.45,3.41.69.66.13,1.31.25,2,.41a48.22,48.22,0,0,1,8.35,2.89l.57.25A8.61,8.61,0,0,1,29,5.46a11,11,0,0,1,3.43,4l.16.29a20.5,20.5,0,0,1,1.54,3.55,7,7,0,0,0,2,3.49,4.82,4.82,0,0,0,3.31,1.27,1.61,1.61,0,0,0,.62-.15c.53-.29.45-.88.27-1.36-.63-1.66-1.6-3.23-1.77-5a8.39,8.39,0,0,1,2-5.69A31.3,31.3,0,0,1,45.91.8a1.3,1.3,0,0,1,.65-.35.83.83,0,0,1,.84.74,1.42,1.42,0,0,1-.46,1.11,5.15,5.15,0,0,1-1,.72,13.91,13.91,0,0,0-3,2.5,8.7,8.7,0,0,0-2.58,6,9.37,9.37,0,0,0,1.12,3.76,4.93,4.93,0,0,1,.61,1.68,2.44,2.44,0,0,1-.32,1.69,3,3,0,0,1-2.51,1.08Z"/><path class="cls-1" d="M109.7,27.15H105l8.58-24.36H119l8.59,24.36h-4.71L116.38,7.78h-.19Zm.16-9.55H122.7v3.54H109.86Z"/><path class="cls-1" d="M140.18,27.47a6.92,6.92,0,0,1-3.86-1.11,7.39,7.39,0,0,1-2.68-3.21,11.94,11.94,0,0,1-1-5.11,11.88,11.88,0,0,1,1-5.15,7.41,7.41,0,0,1,2.72-3.17,7,7,0,0,1,3.82-1.08,5.69,5.69,0,0,1,2.64.54,5.08,5.08,0,0,1,1.64,1.3,7.7,7.7,0,0,1,.94,1.42h.18V2.79h4.32V27.15h-4.24V24.27h-.26a7.36,7.36,0,0,1-1,1.41A5.38,5.38,0,0,1,142.78,27,5.87,5.87,0,0,1,140.18,27.47Zm1.2-3.53a3.68,3.68,0,0,0,2.33-.75,4.5,4.5,0,0,0,1.46-2.07,8.71,8.71,0,0,0,.5-3.11,8.73,8.73,0,0,0-.49-3.08,4.41,4.41,0,0,0-1.45-2,4.18,4.18,0,0,0-4.75,0A4.52,4.52,0,0,0,137.53,15a8.58,8.58,0,0,0-.49,3,8.71,8.71,0,0,0,.49,3A4.62,4.62,0,0,0,139,23.17,3.71,3.71,0,0,0,141.38,23.94Z"/><path class="cls-1" d="M160,6.29a2.5,2.5,0,0,1-1.76-.69A2.14,2.14,0,0,1,157.53,4a2.17,2.17,0,0,1,.73-1.66,2.6,2.6,0,0,1,3.53,0A2.17,2.17,0,0,1,162.52,4a2.14,2.14,0,0,1-.73,1.64A2.49,2.49,0,0,1,160,6.29Zm-2.16,20.86V8.88h4.31V27.15Z"/><path class="cls-1" d="M119.81,41.94a3.26,3.26,0,0,0-1.4-2.43,5.4,5.4,0,0,0-3.19-.87,6.05,6.05,0,0,0-2.37.42,3.48,3.48,0,0,0-1.51,1.13,2.69,2.69,0,0,0-.53,1.63,2.37,2.37,0,0,0,.35,1.32,2.94,2.94,0,0,0,1,.94,6.48,6.48,0,0,0,1.35.65,13.18,13.18,0,0,0,1.48.44l2.29.57a17.24,17.24,0,0,1,2.66.87A9.89,9.89,0,0,1,122.18,48a6.14,6.14,0,0,1,1.61,2,6,6,0,0,1,.6,2.76,6.6,6.6,0,0,1-1.1,3.77,7.23,7.23,0,0,1-3.15,2.53,12.29,12.29,0,0,1-5,.91,12.55,12.55,0,0,1-4.93-.88A7.31,7.31,0,0,1,107,56.52a7.67,7.67,0,0,1-1.27-4.12H110a3.74,3.74,0,0,0,.79,2.12,4.2,4.2,0,0,0,1.8,1.26,7,7,0,0,0,2.49.42,6.8,6.8,0,0,0,2.53-.44,4,4,0,0,0,1.71-1.21,2.93,2.93,0,0,0,.63-1.82,2.39,2.39,0,0,0-.56-1.58,4.23,4.23,0,0,0-1.53-1,15.79,15.79,0,0,0-2.29-.75l-2.77-.72a10.87,10.87,0,0,1-4.75-2.35,5.34,5.34,0,0,1-1.75-4.19,6.22,6.22,0,0,1,1.18-3.77,7.66,7.66,0,0,1,3.19-2.51,11.14,11.14,0,0,1,4.58-.9,10.8,10.8,0,0,1,4.55.9,7.44,7.44,0,0,1,3.07,2.48,6.41,6.41,0,0,1,1.16,3.65Z"/><path class="cls-1" d="M140.61,51.92V41.33h4.3V59.6h-4.17V56.35h-.2a5.44,5.44,0,0,1-2,2.51,6,6,0,0,1-3.47,1,6.13,6.13,0,0,1-3.17-.81,5.43,5.43,0,0,1-2.15-2.34A8.29,8.29,0,0,1,129,53V41.33h4.31v11a3.88,3.88,0,0,0,.95,2.76,3.25,3.25,0,0,0,2.49,1,4,4,0,0,0,1.85-.46A3.9,3.9,0,0,0,140,54.23,4.32,4.32,0,0,0,140.61,51.92Z"/><path class="cls-1" d="M159.29,41.33v3.33h-10.5V41.33ZM151.38,37h4.31V54.11a2.63,2.63,0,0,0,.27,1.32,1.39,1.39,0,0,0,.71.63,2.7,2.7,0,0,0,1,.16,4.18,4.18,0,0,0,.74-.06l.52-.1.73,3.36a8.61,8.61,0,0,1-1,.26,8.25,8.25,0,0,1-1.56.17,7,7,0,0,1-2.91-.49,4.48,4.48,0,0,1-2.05-1.69,5,5,0,0,1-.75-2.85Z"/><path class="cls-1" d="M169,60a7.43,7.43,0,0,1-3.12-.63,5,5,0,0,1-2.19-1.85,5.41,5.41,0,0,1-.8-3,5.12,5.12,0,0,1,.57-2.55A4.33,4.33,0,0,1,165,50.3a8.11,8.11,0,0,1,2.23-.92,19.14,19.14,0,0,1,2.57-.46q1.6-.16,2.61-.3a4,4,0,0,0,1.45-.43,1,1,0,0,0,.46-.91v-.07a2.66,2.66,0,0,0-.8-2.08,3.2,3.2,0,0,0-2.29-.74,4.08,4.08,0,0,0-2.5.69,3.42,3.42,0,0,0-1.25,1.63l-4-.57A6.5,6.5,0,0,1,165,43.35a6.82,6.82,0,0,1,2.68-1.69,10.24,10.24,0,0,1,3.5-.57,11.81,11.81,0,0,1,2.63.31,7.71,7.71,0,0,1,2.39,1A5.22,5.22,0,0,1,178,44.34a6.29,6.29,0,0,1,.66,3V59.6H174.5V57.09h-.14a5.38,5.38,0,0,1-1.1,1.42,5.3,5.3,0,0,1-1.78,1.06A7,7,0,0,1,169,60Zm1.12-3.16a4.73,4.73,0,0,0,2.25-.52,3.91,3.91,0,0,0,1.47-1.38,3.57,3.57,0,0,0,.51-1.86V50.89a1.73,1.73,0,0,1-.68.31,8.65,8.65,0,0,1-1.08.25c-.39.07-.79.14-1.17.19l-1,.15a7.56,7.56,0,0,0-1.73.42,2.9,2.9,0,0,0-1.2.83A2.08,2.08,0,0,0,167,54.4a2.05,2.05,0,0,0,.87,1.8A3.79,3.79,0,0,0,170.11,56.81Z"/><path class="cls-1" d="M183.82,59.6V41.33H188v3.05h.19a4.59,4.59,0,0,1,1.72-2.45,4.73,4.73,0,0,1,2.79-.86l.8,0a5.53,5.53,0,0,1,.74.09v4a4.73,4.73,0,0,0-.86-.17,9,9,0,0,0-1.13-.08,4.48,4.48,0,0,0-2.12.5,3.78,3.78,0,0,0-1.46,1.4,3.91,3.91,0,0,0-.54,2.06V59.6Z"/><path class="cls-1" d="M201.19,66.45a9.17,9.17,0,0,1-1.63-.14,6.15,6.15,0,0,1-1.18-.31l1-3.35a6,6,0,0,0,1.67.26,2.11,2.11,0,0,0,1.31-.46,3.41,3.41,0,0,0,.95-1.48l.37-1-6.62-18.65h4.56l4.22,13.8H206l4.22-13.8h4.58l-7.32,20.48a8.23,8.23,0,0,1-1.35,2.49,5.59,5.59,0,0,1-2.07,1.6A7,7,0,0,1,201.19,66.45Z"/><path class="cls-1" d="M226,60a8.89,8.89,0,0,1-4.64-1.18,8,8,0,0,1-3-3.3,11.88,11.88,0,0,1,0-9.9,8,8,0,0,1,3-3.31,9.69,9.69,0,0,1,9.27,0,7.92,7.92,0,0,1,3,3.31,11.88,11.88,0,0,1,0,9.9,7.89,7.89,0,0,1-3,3.3A8.85,8.85,0,0,1,226,60Zm0-3.45a3.69,3.69,0,0,0,2.43-.81,4.75,4.75,0,0,0,1.45-2.15,9.8,9.8,0,0,0,0-6.06,4.81,4.81,0,0,0-1.45-2.17,3.69,3.69,0,0,0-2.43-.81,3.77,3.77,0,0,0-2.47.81,4.83,4.83,0,0,0-1.46,2.17,9.8,9.8,0,0,0,0,6.06,4.77,4.77,0,0,0,1.46,2.15A3.77,3.77,0,0,0,226,56.51Z"/><path class="cls-1" d="M119.61,66.55a6,6,0,0,1,4.76,2.27,4.25,4.25,0,0,1,1.15,2.92A3.82,3.82,0,0,1,125,73.4c-.79,1-1.49,1.27-2.11.73a1.25,1.25,0,0,1,0-1.93c.52-.63.42-1.39-.32-2.28a4.08,4.08,0,0,0-3-1.48,8.3,8.3,0,0,0-5.56,1.89,14.92,14.92,0,0,0-4.63,5.94,18.84,18.84,0,0,0-1.56,7.14,12.55,12.55,0,0,0,1.71,6.47,8.6,8.6,0,0,0,4.56,2.82c2.27.62,7.08-1.84,9.26-3.87.71-.67.91-.72,1.39-.38s.18.62-.35,1.39c-2.69,2.24-6.85,4.43-9.16,4.82-1.93.33-5.12-1-6.79-2.87s-2.55-4.63-2.62-8.22a22.31,22.31,0,0,1,1.71-8.06,15.44,15.44,0,0,1,4.88-6.4A12,12,0,0,1,119.61,66.55Z"/><path class="cls-1" d="M126.12,84a1.58,1.58,0,0,1,.94-.37,1.86,1.86,0,0,1,.33,0,.73.73,0,0,1,.66.76c1.62-.21,2.64-.12,3.07.3s.44,1.33.12,2.72a16.32,16.32,0,0,0-.66,3.89c0,.58.29.88.7.89a3.39,3.39,0,0,0,1.72-1q1.13-1,3.26-3.18c.73-.23,1.09,0,1.09.66a1.63,1.63,0,0,1-.06.45c-1.6,1.64-2.88,2.9-3.86,3.78A4.21,4.21,0,0,1,131,94.24a2,2,0,0,1-1.74-.89,5.07,5.07,0,0,1-.42-3,18.82,18.82,0,0,1,.56-2.45,5,5,0,0,0,.33-2c-.11-.23-.72-.25-1.85-.07l-3.47,4c-.69.09-1-.25-1-1l2.75-3.24a.79.79,0,0,1-.39-.7A1.2,1.2,0,0,1,126.12,84Z"/><path class="cls-1" d="M138.51,85.13a5.08,5.08,0,0,1,2.27-.47,4.14,4.14,0,0,1,2.06.68.7.7,0,1,1,1.38.2l-1.24,6c0,.75.31.89,1,.43a34.91,34.91,0,0,0,4.53-4c.78-.22,1.18,0,1.18.62a2.28,2.28,0,0,1-.08.54,39.84,39.84,0,0,1-4.9,4.36,2.39,2.39,0,0,1-1.36.6,1.06,1.06,0,0,1-.24,0,2,2,0,0,1-1.13-.34,1.35,1.35,0,0,1-.65-1.15,3.61,3.61,0,0,1-3.22,1.44,2.74,2.74,0,0,1-2.52-1.66,5.37,5.37,0,0,1-.29-1.76,5.6,5.6,0,0,1,.38-2A8.44,8.44,0,0,1,137,86.33,5.2,5.2,0,0,1,138.51,85.13Zm1.13,1.37a4.81,4.81,0,0,0-2.38,2.87c-.46,1.42-.27,2.34.58,2.76a2.36,2.36,0,0,0,2.37-.3,3.86,3.86,0,0,0,1.65-2.53l.54-2.45A2.33,2.33,0,0,0,139.64,86.5Z"/><path class="cls-1" d="M155.11,67a1.93,1.93,0,0,1,1.38-.55q3.84.26,4.06,4.47,0,4.77-4.49,11l-4.29,5.83c1,1.75,2.16,2.65,3.51,2.73.59,0,1.61-.84,3.05-2.57.8-.2,1.1.24.89,1.33q-2.52,2.67-3.9,2.72a4.77,4.77,0,0,1-2.84-1,19.87,19.87,0,0,1-.51,10.14q-1.92,5.49-4.31,5.49c-1.17,0-1.76-.78-1.76-2.34a10.3,10.3,0,0,1,.18-1.78l2.69-12q-1.54-.72-.63-1.65l1.7-1.65,3.29-14.61Q154.14,67.91,155.11,67Zm-4.54,23-2.87,12.71c-.27,1.3-.28,2,0,2.09.48.13,1-.32,1.54-1.35a22.65,22.65,0,0,0,1.42-3.29,14.85,14.85,0,0,0,.72-3.74,17.41,17.41,0,0,0-.23-4.16ZM157,68.16c-.61-.1-1.07.44-1.4,1.64l-3.45,14.41q1.2-1.58,2.83-4a28.83,28.83,0,0,0,2.54-4.43,14.08,14.08,0,0,0,1.12-3.53,6,6,0,0,0-.12-2.67A2,2,0,0,0,157,68.16Z"/><path class="cls-1" d="M162.08,75.34c.65,0,.94.25.88.68l-.68,3.41,3.06,0c.66,0,1,.24.91.8a.85.85,0,0,1-.95,1h-3.49l-1.74,7.91c-.45,2-.2,3,.74,3.12.44,0,1.14-.33,2.11-1.12a47.51,47.51,0,0,0,3.65-3.35c.7-.23,1.06,0,1.06.8a1.35,1.35,0,0,1-.08.42,48.83,48.83,0,0,1-4.92,4.25,4.54,4.54,0,0,1-2.45.86c-1.4,0-2.14-.93-2.24-2.68a18.47,18.47,0,0,1,.66-3.94L161.14,76A.84.84,0,0,1,162.08,75.34Z"/></g></g></svg>